# xmcd CD database file
#
# Track frame offsets:
#	150
#	24120
#	47670
#	59182
#
# Disc length: 1107 seconds
#
# Revision: 0
# Processed by: cddbd v1.5.1PL2 Copyright (c) Steve Scherf et al.
# Submitted via: CDex 1.51
#
DISCID=2e045104
DTITLE=Mi - Give Me Up
DYEAR=2006
DGENRE=JPop
TTITLE0=Give Me Up
TTITLE1=愛の病
TTITLE2=I Love Music♪IV
TTITLE3=Give Me Up -instrumental-
EXTD=YEAR: 2006
EXTT0=
EXTT1=
EXTT2=
EXTT3=
PLAYORDER=
